<?xml version="1.0" encoding="UTF-8"?>
<svg width="14px" height="14px" viewBox="0 0 14 14" version="1.1" xmlns="http://www.w3.org/2000/svg" xmlns:xlink="http://www.w3.org/1999/xlink">
    <!-- Generator: Sketch 63.1 (92452) - https://sketch.com -->
    <title>数据资产-添加文件夹icon</title>
    <desc>Created with Sketch.</desc>
    <g id="页面-1" stroke="none" stroke-width="1" fill="none" fill-rule="evenodd">
        <g id="4" transform="translate(-259.000000, -210.000000)" fill="#42526E" fill-rule="nonzero">
            <g id="数据资产-添加文件夹icon" transform="translate(259.000000, 210.000000)">
                <path d="M13.053764,6.3156792 L13.053764,6.3156792 L2.60996541,6.3156792 C2.22207995,6.3156792 1.89416032,6.58594751 1.78122087,6.95983841 L1.78122087,6.95983841 L0.870013803,9.9542408 L0.870013803,1.67464896 L5.22189168,1.67464896 C5.22189168,2.69997909 6.00059629,3.53059734 6.96190408,3.53059734 L6.96190408,3.53059734 L11.3128243,3.53059734 L11.3128243,5.38657815 L12.1827317,5.38657815 L12.1827317,3.53059734 C12.1827317,3.01843491 11.793007,2.60258262 11.3128243,2.60258262 L6.96087045,2.60258262 C6.48074857,2.60258262 6.09088705,2.18677897 6.09088705,1.67464896 L6.09088705,1.67464896 C6.09088705,1.16247031 5.70205916,0.746666667 5.22090364,0.746666667 L5.22090364,0.746666667 L0.869983402,0.746666667 C0.389846321,0.746666667 0,1.16248653 0,1.67464896 L0,12.812593 C0,13.3247716 0.38983112,13.7404942 0.869983402,13.7404942 L11.3118363,13.7404942 C11.6997218,13.7404942 12.0276414,13.4703231 12.1405808,13.096335 L12.1415385,13.096335 L13.9217561,7.24356421 C13.9217561,6.73141799 13.533901,6.31663581 13.0537184,6.31558191 L13.0537184,6.31558191 L13.053764,6.3156792 Z M11.3570577,12.8126578 L0.870044204,12.8126578 L2.56486563,7.24367771 L13.0518031,7.24367771 L11.3570425,12.8126578 L11.3570577,12.8126578 Z" id="形状"></path>
            </g>
        </g>
    </g>
</svg>